<?xml version="1.0" standalone="no"?>
<!DOCTYPE svg PUBLIC "-//W3C//DTD SVG 20010904//EN"
 "http://www.w3.org/TR/2001/REC-SVG-20010904/DTD/svg10.dtd">
<svg version="1.0" xmlns="http://www.w3.org/2000/svg"
 width="555.000000pt" height="555.000000pt" viewBox="0 0 555.000000 555.000000"
 preserveAspectRatio="xMidYMid meet">
<metadata>
Created by potrace 1.11, written by Peter Selinger 2001-2013
</metadata>
<g transform="translate(0.000000,555.000000) scale(0.100000,-0.100000)"
fill="#000000" stroke="none">
<path d="M2355 4624 c-377 -37 -691 -152 -1008 -368 -54 -37 -111 -78 -125
-90 -15 -13 -59 -51 -98 -84 -80 -68 -159 -156 -226 -252 -50 -71 -118 -199
-118 -222 0 -8 -4 -18 -9 -23 -38 -41 -65 -309 -42 -427 38 -193 178 -343 368
-395 74 -20 269 -22 338 -4 140 37 272 94 381 163 145 93 369 307 456 436 112
166 151 278 151 436 1 120 -9 152 -62 209 -101 109 -379 102 -615 -14 -178
-88 -360 -249 -460 -409 -79 -124 -91 -164 -91 -290 0 -88 4 -113 22 -152 28
-58 77 -105 125 -120 46 -14 76 -5 58 17 -7 8 -21 15 -31 15 -32 0 -64 20 -89
57 -22 32 -25 47 -24 112 1 80 17 137 63 232 61 122 211 295 359 409 108 84
113 88 188 123 107 51 154 62 264 62 97 0 109 -3 153 -28 26 -16 60 -47 75
-69 26 -40 27 -46 26 -172 0 -94 -5 -141 -16 -166 -8 -19 -26 -60 -39 -90 -58
-133 -187 -288 -364 -437 -217 -183 -400 -274 -612 -304 -68 -9 -99 -8 -184 5
-167 27 -271 98 -340 232 -33 67 -34 70 -34 193 1 117 18 226 45 281 4 8 25
51 46 95 37 75 127 216 163 255 9 9 45 50 81 91 240 273 518 464 830 573 340
118 824 128 1120 24 151 -53 290 -134 290 -168 0 -11 -6 -20 -13 -20 -25 0
-242 -209 -392 -376 -44 -49 -85 -93 -91 -99 -28 -25 -230 -288 -302 -392 -18
-26 -115 -172 -215 -323 -263 -396 -315 -466 -435 -588 -105 -106 -212 -202
-226 -202 -4 0 -22 -11 -39 -24 -42 -31 -168 -90 -248 -115 -156 -50 -376 -53
-524 -9 -95 29 -214 118 -248 188 -26 52 -42 141 -30 175 13 40 33 44 33 6 0
-67 26 -91 102 -91 62 0 108 59 110 139 3 118 -108 160 -206 79 -54 -44 -76
-97 -76 -183 0 -128 78 -236 224 -310 94 -48 184 -65 335 -65 146 0 204 10
366 60 387 121 708 338 888 597 93 134 144 224 288 508 151 299 220 421 308
545 17 25 39 56 49 70 80 119 345 400 377 400 33 0 102 -111 130 -209 17 -61
20 -196 5 -206 -5 -3 -10 -16 -10 -28 0 -31 -28 -106 -51 -138 -10 -15 -19
-32 -19 -37 0 -6 -30 -41 -67 -79 -50 -51 -89 -79 -146 -107 -70 -35 -82 -37
-135 -32 -210 23 -299 17 -286 -18 13 -34 127 -45 254 -26 40 6 62 4 80 -5 14
-7 39 -21 57 -30 80 -42 173 -164 198 -258 23 -90 15 -303 -14 -372 -5 -11
-15 -36 -21 -55 -59 -166 -201 -351 -342 -448 -116 -80 -209 -112 -324 -112
-132 0 -207 45 -265 158 -37 73 -38 138 -4 255 56 191 206 369 400 474 39 20
132 36 192 31 107 -7 177 -66 205 -170 16 -63 1 -136 -47 -230 -35 -71 -43
-98 -26 -98 17 0 58 63 81 125 33 84 34 213 3 270 -28 52 -78 99 -127 119 -43
18 -204 22 -234 7 -9 -6 -44 -22 -77 -37 -181 -84 -369 -312 -420 -509 -33
-130 -13 -240 59 -325 30 -35 50 -50 96 -70 14 -6 38 -18 54 -26 38 -18 237
-18 326 1 111 23 133 31 223 75 48 23 91 40 94 36 4 -3 1 -16 -5 -29 -17 -35
-66 -145 -102 -227 -17 -41 -37 -88 -45 -105 -61 -141 -105 -245 -105 -249 0
-3 -16 -40 -35 -82 -19 -41 -35 -77 -35 -80 0 -2 -8 -23 -19 -47 -10 -23 -33
-76 -51 -117 -65 -150 -134 -281 -167 -320 -35 -41 -67 -59 -141 -79 -36 -10
-43 -16 -40 -34 l3 -22 300 0 c300 0 300 0 303 22 3 23 -4 27 -77 38 -63 10
-108 31 -127 60 -32 48 -3 154 103 385 17 36 36 82 44 103 7 20 18 37 24 37
15 1 728 1 741 0 7 0 33 -51 59 -113 131 -310 140 -341 111 -406 -14 -30 -27
-41 -64 -54 -26 -10 -58 -17 -72 -17 -34 0 -53 -14 -48 -36 3 -18 19 -19 383
-19 l380 0 3 22 c3 23 -5 27 -75 38 -24 4 -43 11 -43 16 0 5 -9 9 -19 9 -47 0
-152 163 -222 345 -11 28 -24 59 -28 70 -5 11 -33 76 -61 145 -28 69 -60 144
-71 167 -10 24 -19 45 -19 48 0 3 -10 27 -21 53 -36 80 -47 105 -69 162 -12
30 -28 69 -35 85 -13 28 -70 163 -120 285 -12 30 -55 132 -95 225 -87 204 -95
231 -80 250 14 17 8 194 -8 265 -37 160 -146 283 -337 379 l-78 39 59 12 c160
32 286 91 365 173 72 74 113 211 102 339 -10 110 -93 259 -189 338 -24 19 -43
40 -43 46 -1 6 13 17 30 24 17 7 45 23 63 35 33 22 191 85 261 104 125 33 306
39 397 14 106 -30 222 -121 273 -214 67 -124 79 -309 30 -487 -14 -49 -15 -66
-6 -75 17 -17 26 2 45 87 30 136 37 213 26 284 -23 140 -55 217 -120 288 -115
125 -246 171 -453 161 -176 -9 -288 -41 -469 -133 -59 -30 -115 -54 -123 -54
-9 0 -32 10 -53 23 -125 78 -335 150 -507 176 -226 33 -313 36 -520 15z m1173
-2391 c29 -67 52 -124 52 -127 0 -3 11 -29 24 -58 13 -29 52 -120 86 -203 34
-82 68 -163 76 -179 7 -16 11 -32 8 -37 -7 -12 -641 -12 -648 0 -6 9 8 47 54
146 15 33 35 82 45 108 10 26 22 50 26 53 5 3 9 11 9 19 0 8 13 42 29 77 34
74 50 110 85 195 14 35 38 88 52 119 30 66 21 76 102 -113z"/>
</g>
</svg>
